<svg width="16" height="17" viewBox="0 0 16 17" fill="none" xmlns="http://www.w3.org/2000/svg">
<path fill-rule="evenodd" clip-rule="evenodd" d="M4.95308 1.03136C4.82339 1.1023 4.81245 1.1473 4.81245 1.61061V2.05776H6.54681H8.28117V1.66614C8.28117 1.22352 8.24164 1.07683 8.10877 1.02633C7.9913 0.981646 5.03533 0.986365 4.95308 1.03136ZM4.81245 2.99525V3.40203L6.539 3.39394L8.26554 3.38587V2.99525V2.60463L6.539 2.59657L4.81245 2.58847V2.99525ZM0.167405 3.15125C0.0155311 3.21253 0 3.28134 0 3.89302V4.46442L2.13279 4.45639L4.26558 4.44836L4.27421 3.95468C4.27918 3.66868 4.26855 3.40806 4.24893 3.33512C4.18943 3.11425 4.24702 3.12 2.11817 3.12222C1.08208 3.12331 0.204248 3.13638 0.167405 3.15125ZM12.4061 3.15303C12.346 3.16759 11.4262 3.41194 10.3622 3.69596C8.88029 4.09152 8.41042 4.22846 8.35436 4.28115L8.28117 4.34989V4.1413V3.93274H6.54681H4.81245V8.87045V13.8082L6.539 13.8001L8.26554 13.792L8.28117 9.19922L8.29679 4.60639L8.46867 5.2722C8.5632 5.63841 8.64857 5.95116 8.65839 5.96719C8.66832 5.9835 9.65884 5.73423 10.904 5.40207C12.1292 5.07517 13.1372 4.80773 13.1439 4.80773C13.1727 4.80773 13.1466 4.68555 12.9828 4.05402C12.7742 3.24937 12.7645 3.22316 12.6533 3.16566C12.5562 3.11547 12.5603 3.11566 12.4061 3.15303ZM0 9.40166V13.8081L2.13279 13.8001L4.26558 13.792L4.27349 9.39363L4.28143 4.99523H2.1407H0V9.40166ZM11.0624 5.91029C9.8335 6.23747 8.82201 6.51012 8.8146 6.51622C8.79732 6.53047 8.90007 6.96671 8.93329 7.02009C8.95291 7.05159 9.45397 6.92846 11.1865 6.46637C12.412 6.13956 13.4214 5.86535 13.4297 5.85704C13.4456 5.84113 13.3491 5.41107 13.316 5.35064C13.3028 5.3266 12.5884 5.50401 11.0624 5.91029ZM3.32669 5.82713C3.45912 5.87794 3.46872 5.96754 3.46872 7.15231V8.28126L3.37737 8.37261L3.28603 8.46395H2.15707C0.972303 8.46395 0.88271 8.45436 0.831898 8.32192C0.821242 8.29411 0.812492 7.74958 0.812492 7.11187C0.812492 5.96441 0.813211 5.95163 0.880429 5.88004L0.948397 5.80772H2.11226C2.75238 5.80772 3.29887 5.81647 3.32669 5.82713ZM11.328 6.97881C9.37622 7.50005 9.07935 7.58696 9.08801 7.63458C9.11141 7.76371 10.5935 13.4117 10.6077 13.4259C10.6226 13.4408 14.9616 12.2982 15.0658 12.2519C15.1094 12.2325 15.0167 11.8497 14.3604 9.33894C13.9448 7.74911 13.5988 6.4325 13.5914 6.41316C13.5826 6.39 12.8079 6.58359 11.328 6.97881ZM12.953 13.3683C11.4551 13.7702 10.7633 13.9689 10.7584 13.9986C10.7546 14.0225 10.8113 14.267 10.8845 14.542C10.9877 14.9296 11.0288 15.0412 11.0673 15.0383C11.1215 15.0343 15.5092 13.8687 15.5254 13.8541C15.5309 13.8491 15.4736 13.6081 15.3981 13.3185C15.2824 12.8751 15.2513 12.7912 15.2006 12.7867C15.1675 12.7838 14.1561 13.0455 12.953 13.3683ZM0 14.6047V14.8706L2.13279 14.8625L4.26558 14.8545L4.27465 14.5967L4.28374 14.3389H2.14185H0V14.6047ZM4.81245 14.6048V14.8707L6.539 14.8626L8.26554 14.8545L8.27461 14.5967L8.2837 14.3389H6.54806H4.81245V14.6048ZM13.4061 14.972C12.1772 15.3003 11.168 15.5713 11.1633 15.5743C11.1587 15.5773 11.231 15.8659 11.324 16.2157C11.4666 16.7526 11.506 16.8629 11.5763 16.9234C11.6221 16.9629 11.6855 16.9951 11.7171 16.9951C11.7487 16.9951 12.6936 16.7499 13.8169 16.4502C15.6341 15.9653 15.8669 15.8962 15.9295 15.8234C15.9682 15.7784 16.0002 15.7178 16.0005 15.6887C16.0015 15.6141 15.6763 14.3696 15.6567 14.3727C15.6478 14.374 14.635 14.6438 13.4061 14.972ZM0 16.1069V16.8124L0.0913429 16.9038L0.182686 16.9951H2.12464C3.45594 16.9951 4.0864 16.9845 4.12965 16.9614C4.25849 16.8924 4.28121 16.7572 4.28121 16.0586V15.4014H2.1406H0V16.1069ZM4.81245 16.1019C4.81245 16.4872 4.8212 16.8253 4.83186 16.8531C4.88439 16.99 4.94614 16.9951 6.54731 16.9951C7.5758 16.9951 8.08692 16.9842 8.12961 16.9614C8.25845 16.8924 8.28117 16.7572 8.28117 16.0586V15.4014H6.54681H4.81245V16.1019Z" fill="black"/>
</svg>
