<svg width="20" height="12" viewBox="0 0 20 12" fill="none" xmlns="http://www.w3.org/2000/svg">
<path fill-rule="evenodd" clip-rule="evenodd" d="M18.5352 0L18.7891 0.0898439C18.9297 0.140625 19.1211 0.234375 19.2188 0.300781C19.3164 0.363281 19.4687 0.503906 19.5625 0.609375C19.6562 0.714844 19.7656 0.878906 19.8125 0.976562C19.8555 1.07422 19.918 1.23047 19.9453 1.32812C19.9883 1.46094 20 1.82813 20 2.86328C20 4.14063 19.9961 4.22656 19.9219 4.375C19.8789 4.46484 19.7891 4.5625 19.7148 4.59766C19.6211 4.64844 19.457 4.67187 19.0625 4.6875C18.6484 4.70703 18.4961 4.72656 18.3594 4.78906C18.2617 4.83203 18.1172 4.92969 18.0352 5.00391C17.9492 5.07813 17.8359 5.23438 17.7813 5.35156C17.6953 5.52734 17.6758 5.62109 17.6758 5.85938C17.6758 6.09766 17.6953 6.19141 17.7813 6.36719C17.8359 6.48438 17.9492 6.64062 18.0352 6.71484C18.1172 6.78906 18.2617 6.88672 18.3594 6.92969C18.4961 6.99219 18.6484 7.01172 19.0625 7.03125C19.457 7.04688 19.6211 7.07031 19.7187 7.12109C19.7891 7.15625 19.8789 7.25391 19.9219 7.34375C19.9961 7.49219 20 7.57812 20 8.83984C20 9.83203 19.9844 10.2266 19.9453 10.3711C19.918 10.4766 19.8477 10.6602 19.793 10.7695C19.7344 10.8828 19.6211 11.0508 19.5391 11.1406C19.4609 11.2305 19.3047 11.3594 19.1992 11.4258C19.0898 11.4961 18.8984 11.5898 18.5352 11.7188H10C1.82422 11.7188 1.45703 11.7148 1.26953 11.6484C1.16016 11.6094 1.00391 11.543 0.917969 11.5039C0.832031 11.4609 0.65625 11.3242 0.527344 11.1914C0.394531 11.0625 0.25 10.8672 0.199219 10.7617C0.148437 10.6523 0.0820312 10.4883 0.0546875 10.3906C0.0117187 10.2578 0 9.89063 0 8.85547C0 7.57813 0.00390625 7.49219 0.078125 7.34375C0.121094 7.25391 0.210937 7.15625 0.28125 7.12109C0.378906 7.06641 0.539063 7.04688 0.9375 7.03125C1.40234 7.01172 1.48828 7 1.67969 6.90625C1.79688 6.85156 1.95313 6.73828 2.02734 6.65234C2.10156 6.57031 2.19922 6.42578 2.24219 6.32812C2.30078 6.19922 2.32422 6.07031 2.32422 5.85938C2.32422 5.64844 2.30078 5.51953 2.24219 5.39062C2.19922 5.29297 2.10156 5.14844 2.02734 5.06641C1.95313 4.98047 1.79688 4.86719 1.67969 4.8125C1.48828 4.71875 1.40234 4.70703 0.9375 4.6875C0.539063 4.67187 0.378906 4.65234 0.28125 4.59766C0.210937 4.5625 0.121094 4.46484 0.078125 4.375C0.00390625 4.22656 0 4.14062 0 2.87891C0 1.90625 0.015625 1.48828 0.0507812 1.34766C0.078125 1.24219 0.144531 1.06641 0.195312 0.957031C0.246094 0.851562 0.394531 0.65625 0.523437 0.527344C0.65625 0.394531 0.832031 0.257813 0.917969 0.214844C1.00391 0.175781 1.15234 0.113281 1.25 0.0742188C1.41406 0.0117188 1.97266 0.0078125 18.5352 0ZM6.85547 2.54297C6.74609 2.59375 6.55469 2.74219 6.42187 2.87109C6.27734 3.01563 6.14453 3.19141 6.08203 3.33203C6.02344 3.45313 5.95703 3.67188 5.92969 3.82031C5.89453 4.02344 5.89453 4.14453 5.92969 4.36719C5.95703 4.51953 6.02344 4.75 6.08203 4.875C6.14453 5.00781 6.28125 5.19141 6.42187 5.33203C6.55859 5.46484 6.75781 5.61328 6.88281 5.67578C7.00781 5.73438 7.22656 5.80078 7.37109 5.82812C7.58203 5.86719 7.69922 5.86328 7.92969 5.82422C8.12109 5.79297 8.31641 5.72656 8.49219 5.63281C8.64062 5.55469 8.83594 5.41016 8.92578 5.3125C9.01562 5.21484 9.14453 5.02734 9.21094 4.89453C9.28125 4.75391 9.35547 4.52344 9.38281 4.36719C9.41797 4.14453 9.41797 4.02344 9.38281 3.82031C9.35547 3.67188 9.28906 3.45313 9.23047 3.33203C9.16797 3.19922 9.02734 3.00781 8.88672 2.87109C8.75391 2.73438 8.5625 2.58984 8.4375 2.53125C8.32031 2.47656 8.12891 2.41406 8.01562 2.38672C7.90625 2.36328 7.73047 2.34375 7.625 2.34766C7.52344 2.34766 7.35156 2.37109 7.24609 2.39844C7.13672 2.42578 6.96094 2.49219 6.85547 2.54297V2.54297ZM9.55078 5.48047C8.25 7.10547 7.16016 8.49219 7.12891 8.55469C7.09766 8.61719 7.07031 8.72656 7.07031 8.78906C7.07031 8.85156 7.10547 8.97656 7.14844 9.0625C7.20052 9.16667 7.27865 9.24479 7.38281 9.29688C7.46875 9.33984 7.59766 9.375 7.66406 9.375C7.73437 9.375 7.85937 9.33594 7.9375 9.28516C8.03906 9.22656 8.81641 8.28125 10.4492 6.23828C11.75 4.61328 12.8398 3.23047 12.8711 3.16406C12.9023 3.09766 12.9297 2.99609 12.9297 2.92969C12.9297 2.86328 12.8945 2.74219 12.8516 2.65625C12.7995 2.55208 12.7214 2.47396 12.6172 2.42188C12.5312 2.37891 12.4023 2.34375 12.332 2.34375C12.2656 2.34375 12.1406 2.38281 12.0625 2.43359C11.9609 2.49219 11.1836 3.4375 9.55078 5.48047ZM11.543 6.05859C11.4336 6.10938 11.2422 6.25781 11.1094 6.38672C10.9648 6.53125 10.832 6.70703 10.7695 6.84766C10.7109 6.96875 10.6445 7.1875 10.6172 7.33203C10.582 7.53906 10.582 7.66016 10.6172 7.87891C10.6445 8.03516 10.7109 8.26563 10.7695 8.38672C10.832 8.52344 10.9687 8.70703 11.1094 8.84766C11.2461 8.98047 11.4453 9.12891 11.5703 9.19141C11.6953 9.25 11.9141 9.31641 12.0586 9.34375C12.2695 9.38281 12.3867 9.37891 12.6172 9.33984C12.8086 9.30859 13.0039 9.24219 13.1797 9.14844C13.3281 9.07031 13.5234 8.92578 13.6133 8.82812C13.7031 8.73047 13.832 8.54297 13.8984 8.40625C13.9687 8.26953 14.043 8.03906 14.0703 7.87891C14.1055 7.66016 14.1055 7.53906 14.0703 7.33203C14.043 7.1875 13.9766 6.96875 13.918 6.84375C13.8555 6.71484 13.7148 6.52344 13.5742 6.38281C13.4375 6.24609 13.25 6.10547 13.125 6.04687C13.0078 5.99219 12.8164 5.92578 12.7031 5.90234C12.5938 5.87891 12.418 5.85938 12.3125 5.86328C12.2109 5.86328 12.0391 5.88672 11.9336 5.91406C11.8242 5.94141 11.6484 6.00781 11.543 6.05859V6.05859ZM7.64453 3.51562C7.71484 3.51562 7.84375 3.55078 7.92969 3.59375C8.03385 3.64583 8.11198 3.72396 8.16406 3.82812C8.20703 3.91406 8.24219 4.03516 8.24219 4.10156C8.24219 4.16406 8.20703 4.28906 8.16406 4.375C8.11198 4.47917 8.03385 4.55729 7.92969 4.60938C7.84375 4.65234 7.71875 4.6875 7.65625 4.6875C7.58984 4.6875 7.46875 4.65234 7.38281 4.60938C7.27865 4.55729 7.20052 4.47917 7.14844 4.375C7.10547 4.28906 7.07031 4.16406 7.07031 4.10156C7.07031 4.03516 7.10547 3.91406 7.14844 3.82812C7.19922 3.73047 7.28125 3.64453 7.37109 3.59375C7.45312 3.55469 7.57812 3.51953 7.64453 3.51562ZM12.332 7.03125C12.4023 7.03125 12.5312 7.06641 12.6172 7.10938C12.7214 7.16146 12.7995 7.23958 12.8516 7.34375C12.8945 7.42969 12.9297 7.55469 12.9297 7.61719C12.9297 7.67969 12.8945 7.80469 12.8516 7.89062C12.7995 7.99479 12.7214 8.07292 12.6172 8.125C12.5312 8.16797 12.4063 8.20312 12.3438 8.20312C12.2812 8.20312 12.1563 8.16797 12.0703 8.125C11.9661 8.07292 11.888 7.99479 11.8359 7.89062C11.793 7.80469 11.7578 7.67969 11.7578 7.61719C11.7578 7.55469 11.793 7.42969 11.8359 7.34375C11.8867 7.24609 11.9688 7.16016 12.0586 7.10938C12.1406 7.07031 12.2656 7.03516 12.332 7.03125Z" fill="black"/>
</svg>
