<svg width="20" height="17" viewBox="0 0 20 17" fill="none" xmlns="http://www.w3.org/2000/svg">
<path fill-rule="evenodd" clip-rule="evenodd" d="M9.66279 0.0538073C9.47684 0.120436 9.71986 -0.0625148 6.50238 2.43317C5.02323 3.58049 2.99673 5.15146 1.9991 5.9242C-0.0214699 7.48926 9.3088e-06 7.46766 9.3088e-06 7.93716C9.3088e-06 8.43698 0.305739 8.80544 0.79433 8.8945C1.18351 8.96543 1.06253 9.05015 5.68592 5.46936C8.04678 3.64088 9.98794 2.14463 9.99958 2.14443C10.0113 2.14418 11.9485 3.63716 14.3046 5.46209C16.6607 7.28702 18.646 8.80408 18.7163 8.83337C18.932 8.92301 19.3786 8.87554 19.5803 8.74154C19.9819 8.47474 20.1125 7.9771 19.8969 7.53486C19.7926 7.32081 19.7042 7.24443 18.3301 6.18212L16.8738 5.0562L16.8722 3.22425C16.8709 1.61639 16.8624 1.37491 16.8034 1.24999C16.6967 1.02425 16.5511 0.971621 15.986 0.954603C15.3942 0.936758 15.2097 0.984262 15.072 1.18973C14.9798 1.32728 14.9779 1.35219 14.9779 2.43928C14.9779 3.04935 14.964 3.54789 14.947 3.54715C14.93 3.54641 13.9117 2.76867 12.684 1.8188C11.2289 0.69296 10.3965 0.0751221 10.2927 0.0438936C10.087 -0.0179439 9.8526 -0.0142677 9.66279 0.0538073ZM6.32614 6.723L2.67393 9.55873L2.68454 12.5122C2.69639 15.7979 2.67895 15.5972 2.98184 15.9338C3.06471 16.0259 3.21926 16.1441 3.32534 16.1965L3.51816 16.2919L5.81121 16.3039L8.10431 16.3158L8.1155 13.8221L8.12673 11.3285L8.24203 11.1768C8.45287 10.8993 8.44044 10.9012 9.99896 10.9012C11.5575 10.9012 11.5451 10.8993 11.7559 11.1768L11.8712 11.3285L11.8824 13.8221L11.8936 16.3158L14.1867 16.3039L16.4798 16.2919L16.6726 16.1965C16.7787 16.1441 16.9332 16.0259 17.0161 15.9338C17.3189 15.5973 17.3015 15.7977 17.3139 12.5122L17.3251 9.55873L13.6756 6.72916C11.6683 5.17289 10.0153 3.89682 10.0022 3.89343C9.98909 3.89005 8.3349 5.16335 6.32614 6.723Z" fill="black"/>
</svg>
