<svg width="16" height="18" viewBox="0 0 16 18" fill="none" xmlns="http://www.w3.org/2000/svg">
<path fill-rule="evenodd" clip-rule="evenodd" d="M3.24879 0.0723278C2.96659 0.178652 2.7774 0.392909 2.41344 1.01824C2.01491 1.70296 0.938294 3.53763 0.514864 4.25361C0.472126 4.32587 0.436985 4.40349 0.436751 4.42606C0.436416 4.45864 1.16055 4.46711 3.94685 4.46711C7.11709 4.46711 7.45933 4.46209 7.47767 4.41515C7.48885 4.38657 7.49799 3.38147 7.49799 2.18159V0L5.46484 0.00170801C3.48259 0.00338318 3.4271 0.00515688 3.24879 0.0723278ZM8.56895 2.23356V4.46711H12.0643C13.9868 4.46711 15.5664 4.45601 15.5745 4.44248C15.5885 4.41929 14.6412 2.79178 13.4138 0.730176C13.1845 0.345085 12.9996 0.165447 12.731 0.0667768C12.5556 0.00239779 12.478 0 10.559 0H8.56895V2.23356ZM0.00900266 11.2581L0.0180054 16.998L0.0947464 17.1844C0.193877 17.4251 0.39505 17.6714 0.595788 17.7978C0.937558 18.013 0.454488 17.9998 8 17.9998C15.5455 17.9998 15.0624 18.013 15.4042 17.7978C15.6049 17.6714 15.8061 17.4251 15.9053 17.1844L15.982 16.998L15.991 11.2581L16 5.5182H8H0L0.00900266 11.2581ZM10.3618 9.44184C10.5505 9.56317 10.6417 9.89699 10.54 10.0942C10.4875 10.1963 7.63383 13.0017 7.52476 13.0586C7.40866 13.1191 7.1523 13.1192 7.03614 13.0587C6.92763 13.0021 5.5463 11.6418 5.49349 11.5395C5.47314 11.5 5.45654 11.3965 5.4566 11.3096C5.45684 11.0138 5.66755 10.8068 5.96852 10.8066C6.05684 10.8065 6.1698 10.8276 6.21953 10.8535C6.26923 10.8794 6.52054 11.1085 6.778 11.3626C7.03543 11.6168 7.26144 11.8247 7.28018 11.8247C7.29892 11.8247 7.85636 11.2917 8.51891 10.6402C9.18147 9.98873 9.75369 9.43928 9.79051 9.41917C9.9624 9.3254 10.1951 9.33463 10.3618 9.44184Z" fill="black"/>
</svg>
