<svg width="1018" height="215" viewBox="0 0 1018 215" fill="none" xmlns="http://www.w3.org/2000/svg">
<path d="M0 28.5477C0 12.7812 12.7812 0 28.5477 0H988.465C1004.23 0 1017.01 12.7813 1017.01 28.5477V186.452C1017.01 202.219 1004.23 215 988.465 215H28.5478C12.7813 215 0 202.219 0 186.452V28.5477Z" fill="url(#paint0_linear_3370_6113)"/>
<mask id="mask0_3370_6113" style="mask-type:alpha" maskUnits="userSpaceOnUse" x="672" y="0" width="346" height="215">
<path d="M672.656 28.5477C672.656 12.7812 685.437 0 701.203 0H988.465C1004.23 0 1017.01 12.7813 1017.01 28.5477V186.452C1017.01 202.219 1004.23 215 988.465 215H701.204C685.437 215 672.656 202.219 672.656 186.452V28.5477Z" fill="url(#paint1_linear_3370_6113)"/>
</mask>
<g mask="url(#mask0_3370_6113)">
<circle cx="871.598" cy="121.328" r="181.1" fill="#FFECB4"/>
</g>
<circle r="12.8056" transform="matrix(-0.384828 0.922988 0.922988 0.384828 702.203 45.2942)" fill="#BDD83D"/>
<circle r="5.91027" transform="matrix(-0.384828 0.922988 0.922988 0.384828 686.664 69.7647)" fill="#E33C71"/>
<circle r="5.91027" transform="matrix(-0.384828 0.922988 0.922988 0.384828 731.223 49.9229)" fill="#FFD723"/>
<circle r="6.52527" transform="matrix(0.0378853 -0.999282 -0.999282 -0.0378853 961.641 178.781)" fill="#BDD83D"/>
<circle r="3.01166" transform="matrix(0.0378853 -0.999282 -0.999282 -0.0378853 964.701 164.33)" fill="#E33C71"/>
<circle r="3.01166" transform="matrix(0.0378853 -0.999282 -0.999282 -0.0378853 946.963 181.742)" fill="#FFD723"/>
<path d="M806.675 94.4609H908.376V178.32H820.949C813.065 178.32 806.675 171.929 806.675 164.046V94.4609Z" fill="#FC1A40"/>
<path d="M865.554 94.4609H927.11V164.046C927.11 171.929 920.72 178.32 912.837 178.32H865.554V94.4609Z" fill="#C60034"/>
<rect x="851.281" y="94.4609" width="29.4398" height="83.8589" fill="#FCBF29"/>
<rect x="865.554" y="94.4609" width="15.166" height="83.8589" fill="#FE9923"/>
<rect x="850.187" y="29.5469" width="36.5768" height="51.7427" rx="18.2884" fill="#FE8821"/>
<rect x="897.885" y="28.5469" width="36.5768" height="57.6226" rx="18.2884" transform="rotate(52.1737 897.885 28.5469)" fill="#EF7F1E"/>
<path d="M812.079 55.0757C813.796 47.3817 821.425 42.5364 829.119 44.2534L929.852 66.7326C937.546 68.4495 942.391 76.0786 940.674 83.7726L935.845 105.413C935.416 107.337 933.508 108.548 931.585 108.119L809.956 80.9764C808.032 80.5472 806.821 78.6399 807.25 76.7164L812.079 55.0757Z" fill="#FF3E75"/>
<path d="M869.359 67.8589C871.076 60.1649 878.705 55.3196 886.399 57.0366L929.852 66.7333C937.546 68.4503 942.391 76.0793 940.674 83.7733L935.845 105.414C935.416 107.338 933.508 108.549 931.585 108.12L867.236 93.7596C865.312 93.3304 864.101 91.4231 864.53 89.4996L869.359 67.8589Z" fill="#FC1A40"/>
<path d="M863.117 51.8398L890.885 58.0366L882.17 97.0913L854.401 90.8945L863.117 51.8398Z" fill="#FCBF29"/>
<defs>
<linearGradient id="paint0_linear_3370_6113" x1="508.506" y1="0" x2="508.506" y2="215" gradientUnits="userSpaceOnUse">
<stop stop-color="#FFF4D5"/>
<stop offset="1" stop-color="#FFFCF3"/>
</linearGradient>
<linearGradient id="paint1_linear_3370_6113" x1="844.834" y1="0" x2="844.834" y2="215" gradientUnits="userSpaceOnUse">
<stop stop-color="#FFF4D5"/>
<stop offset="1" stop-color="#FFFCF3"/>
</linearGradient>
</defs>
</svg>
