<svg width="18" height="18" viewBox="0 0 18 18" fill="none" xmlns="http://www.w3.org/2000/svg">
<path fill-rule="evenodd" clip-rule="evenodd" d="M8.97539 0C9.14062 0 9.24609 0.0246094 9.41133 0.0984375C9.55898 0.161719 9.70664 0.267188 9.84375 0.407813C9.95977 0.523828 10.125 0.710156 10.2129 0.826172C10.3008 0.942187 10.452 1.08984 10.5469 1.16016C10.6453 1.22695 10.8176 1.31484 10.9336 1.35352C11.0777 1.39922 11.2359 1.42031 11.4258 1.42031C11.6789 1.4168 11.7492 1.39922 12.1289 1.24453C12.5297 1.08281 12.5684 1.07578 12.8848 1.07227C13.1801 1.07227 13.2398 1.08281 13.3945 1.16719C13.4895 1.21641 13.6266 1.32187 13.6969 1.3957C13.7637 1.46953 13.8445 1.56797 13.8762 1.61719C13.9043 1.66641 13.957 1.78594 13.9887 1.88086C14.0238 1.9793 14.0695 2.21484 14.0941 2.4082C14.1258 2.66133 14.168 2.82656 14.2488 2.99883C14.3191 3.14648 14.4281 3.30117 14.5441 3.41367C14.6461 3.51211 14.8254 3.63867 14.9414 3.69492C15.0891 3.76523 15.2684 3.81445 15.5285 3.84961C15.7395 3.87773 15.982 3.92695 16.0734 3.95859C16.1684 3.99023 16.2738 4.03242 16.3125 4.05352C16.3512 4.07461 16.4531 4.15547 16.5375 4.23281C16.6219 4.31367 16.7273 4.45078 16.773 4.54219C16.8188 4.63711 16.868 4.80937 16.8785 4.92891C16.8926 5.06602 16.8855 5.22422 16.8574 5.34375C16.8328 5.44922 16.7484 5.68828 16.6711 5.87109C16.5375 6.18398 16.527 6.22617 16.527 6.53906C16.5305 6.7957 16.548 6.91875 16.6043 7.06641C16.6465 7.17188 16.7414 7.33711 16.8152 7.43555C16.8891 7.53047 17.0648 7.69922 17.209 7.8082C17.3531 7.91719 17.557 8.09648 17.659 8.2125C17.775 8.33906 17.8734 8.49375 17.9191 8.61328C17.9719 8.75391 17.9859 8.86289 17.9754 9.01758C17.9648 9.14062 17.9227 9.30234 17.8734 9.4043C17.8277 9.49922 17.7082 9.66445 17.6133 9.76992C17.5148 9.87187 17.3426 10.0266 17.2266 10.1074C17.1105 10.1883 16.9523 10.3254 16.8785 10.4098C16.8012 10.4941 16.6992 10.6523 16.65 10.7578C16.6043 10.8633 16.548 11.0602 16.5305 11.1973C16.5023 11.3906 16.5059 11.4926 16.548 11.6719C16.5797 11.7984 16.6641 12.0445 16.7379 12.2168C16.8609 12.5016 16.8715 12.5648 16.875 12.8496C16.875 13.1062 16.8609 13.1977 16.7941 13.3418C16.7484 13.4367 16.6535 13.5773 16.5832 13.6512C16.5129 13.725 16.3828 13.8234 16.2949 13.8656C16.207 13.9113 16.0805 13.9641 16.0137 13.9852C15.9469 14.0098 15.7219 14.0484 15.5109 14.0801C15.2332 14.1187 15.0785 14.1609 14.9133 14.2453C14.7938 14.3051 14.6215 14.4316 14.5266 14.5266C14.4352 14.6215 14.3121 14.8008 14.2488 14.9309C14.1715 15.0996 14.1258 15.2719 14.0906 15.5215C14.066 15.7148 14.0273 15.9293 14.0027 15.9961C13.9816 16.0629 13.9289 16.1895 13.8832 16.2773C13.841 16.3652 13.7426 16.4953 13.6687 16.5656C13.5949 16.6359 13.4543 16.7309 13.3594 16.773C13.2609 16.8152 13.0957 16.8574 12.9902 16.868C12.8848 16.875 12.709 16.8645 12.6035 16.8398C12.498 16.8152 12.259 16.7309 12.0762 16.65C11.7633 16.5164 11.7211 16.5059 11.4082 16.5094C11.141 16.5094 11.032 16.527 10.8633 16.5938C10.7473 16.6395 10.5891 16.7273 10.5117 16.7871C10.4344 16.8469 10.3008 16.9875 10.2129 17.1035C10.125 17.216 9.95273 17.4164 9.82617 17.55C9.68555 17.6977 9.5168 17.8312 9.39375 17.8945C9.23906 17.9789 9.14766 18 8.98242 18C8.81719 18 8.72578 17.9789 8.56758 17.8945C8.44805 17.8312 8.2793 17.6977 8.13867 17.55C8.01211 17.4164 7.83984 17.216 7.75195 17.1035C7.66406 16.9875 7.53047 16.8469 7.45312 16.7871C7.37578 16.7273 7.21758 16.6395 7.10156 16.5938C6.93281 16.527 6.82383 16.5094 6.55664 16.5094C6.24375 16.5059 6.20156 16.5164 5.88867 16.65C5.70586 16.7309 5.4668 16.8152 5.36133 16.8398C5.25586 16.8645 5.08008 16.875 4.97461 16.868C4.86914 16.8574 4.70039 16.8152 4.60547 16.773C4.50703 16.7309 4.36992 16.6359 4.29609 16.5656C4.22227 16.4953 4.12383 16.3652 4.08164 16.2773C4.03594 16.1895 3.9832 16.0629 3.96211 15.9961C3.9375 15.9293 3.89883 15.7148 3.87422 15.5215C3.83906 15.2719 3.79336 15.0996 3.71602 14.9309C3.65273 14.8008 3.52969 14.6215 3.43477 14.5266C3.34336 14.4316 3.17109 14.3051 3.04805 14.2453C2.88633 14.1609 2.73164 14.1187 2.45039 14.0801C2.24297 14.0484 2.01797 14.0098 1.95117 13.9852C1.88437 13.9641 1.75781 13.9113 1.66992 13.8656C1.58203 13.8234 1.45195 13.725 1.38164 13.6512C1.31133 13.5773 1.21641 13.4367 1.1707 13.3418C1.10391 13.1977 1.08984 13.1062 1.08984 12.8496C1.09336 12.5648 1.10391 12.5016 1.22695 12.2168C1.30078 12.0445 1.38516 11.7984 1.41328 11.6719C1.45898 11.4891 1.4625 11.3941 1.43437 11.1973C1.4168 11.0602 1.36055 10.8633 1.31133 10.7578C1.26562 10.6523 1.1707 10.5012 1.10391 10.4273C1.03711 10.35 0.864844 10.1988 0.720703 10.0898C0.576563 9.98086 0.390234 9.81211 0.305859 9.71719C0.221484 9.62227 0.119531 9.47461 0.0773438 9.38672C0.0175781 9.26719 0 9.16523 0 8.96484C0.00351563 8.76797 0.0210937 8.65898 0.0808594 8.53242C0.123047 8.44102 0.242578 8.2793 0.341016 8.17031C0.442969 8.06133 0.629297 7.89961 0.752344 7.8082C0.878906 7.72031 1.03359 7.5832 1.09688 7.50586C1.16367 7.42852 1.25508 7.28086 1.3043 7.17891C1.35 7.08047 1.40625 6.89062 1.43086 6.76055C1.46602 6.56016 1.4625 6.48281 1.4168 6.27539C1.38867 6.1418 1.30078 5.88516 1.22695 5.71289C1.10391 5.42109 1.09336 5.36836 1.08984 5.0625C1.08984 4.76719 1.10039 4.70742 1.18125 4.55273C1.23398 4.45781 1.34297 4.31367 1.42734 4.23281C1.51172 4.15547 1.61367 4.07461 1.65234 4.05352C1.69102 4.03242 1.79648 3.99023 1.88789 3.95859C1.98281 3.92695 2.22539 3.87773 2.43281 3.84961C2.71758 3.81094 2.86875 3.76875 3.04102 3.68438C3.16758 3.62109 3.33984 3.49805 3.42773 3.41016C3.51562 3.32227 3.63867 3.15 3.70195 3.02344C3.78984 2.84766 3.82852 2.70703 3.86719 2.42578C3.8918 2.22187 3.94102 1.97578 3.97617 1.88086C4.00781 1.78594 4.06055 1.66641 4.08867 1.61719C4.12031 1.56797 4.20117 1.46953 4.26797 1.3957C4.33828 1.32187 4.47188 1.21641 4.57031 1.16719C4.725 1.08281 4.78477 1.07227 5.08008 1.07227C5.39648 1.07578 5.43516 1.08281 5.83594 1.24805C6.21562 1.40273 6.28594 1.42031 6.53906 1.42031C6.73242 1.42383 6.88711 1.40273 7.03125 1.35352C7.14727 1.31484 7.31953 1.22695 7.41797 1.16016C7.51289 1.08984 7.66406 0.942187 7.75195 0.826172C7.83984 0.710156 8.00508 0.523828 8.12109 0.407813C8.25469 0.274219 8.40938 0.158203 8.54297 0.0984375C8.69766 0.028125 8.81016 0.00351563 8.97188 0L8.97539 0ZM6.15586 4.39453C6.05742 4.44023 5.88516 4.57383 5.76562 4.69336C5.63906 4.81992 5.51602 4.98516 5.45977 5.1082C5.40703 5.21719 5.34727 5.41406 5.32266 5.54766C5.29102 5.73047 5.29102 5.83945 5.32266 6.03984C5.34727 6.18047 5.41406 6.39141 5.47734 6.51445C5.53711 6.63398 5.66719 6.81328 5.76562 6.91172C5.86406 7.01016 6.04336 7.14023 6.16289 7.2C6.28594 7.26328 6.48984 7.33008 6.61992 7.35469C6.80625 7.38633 6.91523 7.38633 7.10508 7.35469C7.23867 7.33359 7.44961 7.2668 7.56914 7.20703C7.69219 7.15078 7.875 7.01719 7.97695 6.91523C8.08242 6.8168 8.21602 6.63398 8.27578 6.51445C8.33906 6.39141 8.40586 6.18047 8.43047 6.03984C8.46211 5.83945 8.46211 5.73047 8.43047 5.54766C8.40586 5.41406 8.34609 5.21719 8.29336 5.1082C8.23711 4.98516 8.11406 4.81992 7.9875 4.68984C7.86445 4.57031 7.68867 4.43672 7.57969 4.3875C7.47422 4.33477 7.31602 4.27852 7.22813 4.25742C7.14023 4.23633 6.975 4.22227 6.85898 4.22227C6.74297 4.22227 6.57773 4.24336 6.48984 4.26797C6.40195 4.29258 6.25078 4.34883 6.15586 4.39453ZM5.4 12.8672L6.24375 13.5L12.5719 5.0625L11.7316 4.42969L5.4 12.8672ZM10.3746 10.7227C10.2762 10.7684 10.1004 10.902 9.98438 11.018C9.8543 11.148 9.73477 11.3133 9.675 11.4328C9.62578 11.5453 9.5625 11.7422 9.54141 11.8723C9.50625 12.0586 9.50625 12.1676 9.54141 12.3645C9.5625 12.5086 9.63281 12.716 9.69258 12.8391C9.75586 12.9621 9.88594 13.1414 9.98438 13.2398C10.0828 13.3383 10.2621 13.4684 10.3816 13.5281C10.5047 13.5879 10.7086 13.6582 10.8387 13.6828C11.025 13.7145 11.1305 13.7145 11.3238 13.6828C11.4574 13.6582 11.6684 13.5914 11.7879 13.5352C11.9109 13.4754 12.0938 13.3453 12.1957 13.2434C12.3012 13.1414 12.4348 12.9621 12.4945 12.8391C12.5578 12.716 12.6246 12.5086 12.6492 12.3645C12.6809 12.1676 12.6809 12.0586 12.6492 11.8723C12.6246 11.7422 12.5648 11.5453 12.5121 11.4328C12.4559 11.3133 12.3328 11.1445 12.2027 11.018C12.0832 10.8984 11.9074 10.7648 11.7984 10.7121C11.6895 10.6629 11.5312 10.6031 11.4469 10.5855C11.359 10.5645 11.1938 10.5469 11.0777 10.5504C10.9617 10.5504 10.793 10.5715 10.7086 10.5961C10.6207 10.6207 10.4695 10.677 10.3746 10.7227ZM6.87656 5.27344C6.94336 5.27344 7.05234 5.30156 7.12266 5.33672C7.18945 5.37188 7.28086 5.46328 7.32305 5.54063C7.36523 5.61445 7.40039 5.73047 7.40039 5.80078C7.40039 5.86758 7.36523 5.98711 7.31953 6.06445C7.26328 6.15938 7.18945 6.22266 7.09102 6.26484C7.01016 6.3 6.91172 6.32812 6.86602 6.32461C6.82383 6.32461 6.72539 6.29648 6.64805 6.25781C6.55313 6.21211 6.4793 6.13828 6.42305 6.03984C6.35977 5.92734 6.34219 5.85 6.35273 5.74805C6.36328 5.6707 6.40195 5.5582 6.44414 5.49844C6.48633 5.43516 6.5707 5.36133 6.6375 5.32969C6.70078 5.29805 6.80625 5.27344 6.87656 5.27344ZM11.0953 11.6016C11.1621 11.6016 11.2711 11.6297 11.3414 11.6648C11.4082 11.7 11.4996 11.7914 11.5418 11.8688C11.584 11.9426 11.6191 12.0586 11.6191 12.1289C11.6191 12.1957 11.584 12.3152 11.5383 12.3926C11.482 12.4875 11.4082 12.5508 11.3098 12.593C11.2289 12.6281 11.1305 12.6562 11.0848 12.6527C11.0426 12.6527 10.9441 12.6246 10.8668 12.5859C10.7719 12.5402 10.698 12.4664 10.6418 12.368C10.5785 12.2555 10.5609 12.1781 10.5715 12.0762C10.582 11.9988 10.6207 11.8863 10.6629 11.8266C10.7051 11.7633 10.7895 11.6895 10.8562 11.6578C10.9195 11.6262 11.025 11.6016 11.0953 11.6016Z" fill="black"/>
</svg>
