<svg width="19" height="18" viewBox="0 0 19 18" fill="none" xmlns="http://www.w3.org/2000/svg">
<path fill-rule="evenodd" clip-rule="evenodd" d="M1.21505 0.0499559C0.919038 0.12403 0.697449 0.250521 0.474243 0.472883C0.244358 0.701925 0.105386 0.954134 0.0413669 1.25855C-0.0142148 1.52278 -0.013582 8.04398 0.0420349 8.30389C0.139487 8.75923 0.433955 9.15098 0.836245 9.36044C1.16474 9.53144 1.35255 9.56244 2.06052 9.56244H2.67403V10.1519C2.67403 10.8275 2.70359 10.9285 2.94135 11.0648C3.1037 11.1579 3.26908 11.1658 3.41997 11.0878C3.48026 11.0566 3.96907 10.701 4.50622 10.2977L5.48282 9.56427L7.97194 9.55457C10.4592 9.54487 10.4612 9.54479 10.6545 9.46601C11.0445 9.30693 11.3833 8.96817 11.5424 8.57807L11.6212 8.38472L11.6309 4.90427C11.6372 2.61498 11.6281 1.36581 11.6043 1.2543C11.4776 0.660195 10.9566 0.145791 10.3688 0.0343115C10.0803 -0.0203914 1.4372 -0.00562582 1.21505 0.0499559ZM6.21579 2.19444C6.52052 2.27554 6.72312 2.39258 6.9476 2.61702C7.44829 3.11771 7.55696 3.80648 7.23602 4.44516C7.10485 4.7062 6.79224 5.01972 6.54998 5.1332C6.40577 5.20077 6.36541 5.23741 6.36541 5.30069C6.36541 5.4501 6.2314 5.65531 6.08508 5.72998C5.90497 5.82184 5.75795 5.81948 5.58435 5.72193C5.38132 5.60781 5.31073 5.44683 5.31073 5.09791C5.31073 4.79377 5.36448 4.61268 5.49699 4.47065C5.58481 4.3765 5.80756 4.25388 5.89081 4.25388C5.92136 4.25388 6.00879 4.22203 6.08508 4.18311C6.24374 4.10215 6.36573 3.89982 6.36485 3.71916C6.36351 3.45795 6.10459 3.1992 5.8445 3.1992C5.77978 3.1992 5.61487 3.24831 5.47807 3.30836C5.2903 3.3908 5.19858 3.41256 5.10387 3.39716C4.74082 3.33828 4.54067 2.9312 4.72127 2.61912C4.78469 2.50951 4.86059 2.44918 5.06548 2.34554C5.45726 2.1474 5.84683 2.09621 6.21579 2.19444ZM6.04992 6.43401C6.20591 6.51361 6.33026 6.71614 6.33026 6.89058C6.33026 7.15928 6.07035 7.41792 5.80031 7.41792C5.6368 7.41792 5.41961 7.2812 5.34227 7.12957C5.21243 6.87508 5.29393 6.59724 5.54251 6.44674C5.71084 6.34486 5.86743 6.34092 6.04992 6.43401ZM12.6854 7.97163C12.6722 8.44993 12.6574 8.56366 12.5772 8.80659C12.4421 9.21584 12.2585 9.50567 11.9203 9.84369C11.5798 10.184 11.3252 10.347 10.9197 10.4846L10.6369 10.5805L13.0377 10.5812C15.3737 10.5819 15.4422 10.5839 15.5772 10.6527C15.7332 10.7323 15.8575 10.9349 15.8575 11.1093C15.8575 11.2838 15.7332 11.4863 15.5772 11.5659C15.4411 11.6353 15.3764 11.6367 12.1636 11.6367H8.88863L8.74839 11.5578C8.42967 11.3787 8.38432 10.9713 8.65498 10.7185L8.76348 10.6171H7.56444H6.36541V13.0587C6.36541 14.746 6.37772 15.5579 6.40528 15.6867C6.53406 16.2884 7.02645 16.7811 7.62396 16.9062C7.7469 16.932 8.44419 16.9452 9.67419 16.9452H11.5381L12.5816 17.4727C13.2981 17.8348 13.6614 18.0001 13.7408 18C13.9222 17.9998 14.124 17.8778 14.2048 17.7196C14.2602 17.6108 14.2755 17.5121 14.2755 17.263V16.9452H15.4164C16.635 16.9452 16.8025 16.9284 17.121 16.7741C17.5273 16.5774 17.8689 16.1361 17.963 15.6867C18.0184 15.4221 18.0177 8.93565 17.9622 8.67648C17.8324 8.06979 17.3248 7.56467 16.7321 7.45224C16.6281 7.43255 15.7313 7.41792 14.626 7.41792H12.7009L12.6854 7.97163ZM15.5772 12.7621C15.734 12.8421 15.8575 13.0444 15.8575 13.2213C15.8575 13.3848 15.7208 13.602 15.5692 13.6793C15.4436 13.7434 15.3097 13.746 12.1636 13.746H8.88863L8.74839 13.6672C8.39458 13.4684 8.391 12.9871 8.74171 12.7748L8.87907 12.6917L12.1588 12.6915C15.3766 12.6913 15.4411 12.6927 15.5772 12.7621Z" fill="black"/>
</svg>
