<svg width="20" height="19" viewBox="0 0 20 19" fill="none" xmlns="http://www.w3.org/2000/svg">
<path d="M19.4369 15.4002L11.6321 1.038C11.4767 0.75177 11.247 0.512777 10.9671 0.34624C10.6872 0.179703 10.3676 0.0917969 10.0419 0.0917969C9.71623 0.0917969 9.39659 0.179703 9.11671 0.34624C8.83683 0.512777 8.60709 0.75177 8.45173 1.038L0.652509 15.4002C0.49828 15.6764 0.419141 15.9882 0.422985 16.3045C0.426829 16.6207 0.513521 16.9305 0.674416 17.2028C0.835312 17.4751 1.06479 17.7005 1.33996 17.8565C1.61514 18.0125 1.92639 18.0936 2.2427 18.0918H17.8467C18.1598 18.0914 18.4675 18.0099 18.7396 17.8551C19.0117 17.7003 19.239 17.4775 19.3993 17.2085C19.5595 16.9395 19.6472 16.6336 19.6538 16.3206C19.6604 16.0076 19.5857 15.6982 19.4369 15.4227V15.4002ZM9.32268 4.60609C9.32268 4.39745 9.40556 4.19736 9.55308 4.04983C9.70061 3.90231 9.9007 3.81943 10.1093 3.81943C10.318 3.81943 10.5181 3.90231 10.6656 4.04983C10.8131 4.19736 10.896 4.39745 10.896 4.60609V11.3489C10.896 11.5576 10.8131 11.7577 10.6656 11.9052C10.5181 12.0527 10.318 12.1356 10.1093 12.1356C9.9007 12.1356 9.70061 12.0527 9.55308 11.9052C9.40556 11.7577 9.32268 11.5576 9.32268 11.3489V4.60609ZM10.1093 15.7599C9.9093 15.7599 9.71375 15.7005 9.54742 15.5894C9.38109 15.4783 9.25146 15.3203 9.1749 15.1355C9.09835 14.9507 9.07832 14.7473 9.11735 14.5511C9.15637 14.3549 9.2527 14.1747 9.39415 14.0333C9.5356 13.8918 9.71582 13.7955 9.91202 13.7565C10.1082 13.7174 10.3116 13.7375 10.4964 13.814C10.6812 13.8906 10.8392 14.0202 10.9503 14.1865C11.0614 14.3529 11.1208 14.5484 11.1208 14.7484C11.1208 14.8813 11.0946 15.0128 11.0438 15.1355C10.9929 15.2582 10.9184 15.3697 10.8245 15.4636C10.7306 15.5575 10.6191 15.632 10.4964 15.6829C10.3737 15.7337 10.2422 15.7599 10.1093 15.7599Z" fill="black"/>
</svg>
