<svg width="17" height="19" viewBox="0 0 17 19" fill="none" xmlns="http://www.w3.org/2000/svg">
<path fill-rule="evenodd" clip-rule="evenodd" d="M1.98159 0.298498C1.02658 0.549743 0.3615 1.17847 0.0777028 2.09822C0.00363561 2.3383 0 2.67114 0 9.21987C0 15.7686 0.00363561 16.1014 0.0777028 16.3415C0.364924 17.2723 1.02882 17.895 1.99821 18.1429C2.30745 18.222 2.53765 18.2246 9.26516 18.2246H16.2128V17.3376V16.4505L9.31124 16.4392L2.40972 16.4279L2.24062 16.3372C1.92507 16.1682 1.79672 15.9297 1.79672 15.5125C1.79672 15.1507 1.91277 14.9196 2.17069 14.768L2.36744 14.6523L9.2901 14.6412L16.2128 14.6302V8.21362C16.2128 1.19923 16.2243 1.53671 15.9709 1.10432C15.8008 0.813966 15.5001 0.540146 15.1765 0.380851L14.8829 0.236268L8.58287 0.227728C2.5428 0.219569 2.27046 0.222486 1.98159 0.298498Z" fill="black"/>
</svg>
