<svg width="20" height="20" viewBox="0 0 20 20" fill="none" xmlns="http://www.w3.org/2000/svg">
<path fill-rule="evenodd" clip-rule="evenodd" d="M9.4609 0.0316456C7.68022 0.222779 6.0442 1.44267 5.38727 3.06907C5.10197 3.77534 5.04196 4.11443 5.04284 5.01431C5.04378 6.00699 5.11781 6.34731 5.50923 7.15883C6.22243 8.63739 7.53537 9.63019 9.15009 9.91172C9.79506 10.0242 10.2008 10.0242 10.8458 9.91172C12.4605 9.63019 13.7738 8.63709 14.4864 7.15883C14.8238 6.45907 14.9259 6.0582 14.9664 5.27355C15.0041 4.54398 14.9386 4.04315 14.7175 3.36908C14.1591 1.66713 12.4421 0.242901 10.7291 0.0607439C10.0377 -0.0127643 9.90347 -0.0158737 9.4609 0.0316456ZM6.91797 11.2884C3.85509 11.5435 1.30272 13.5537 0.359198 16.4541C0.103005 17.2417 0.00603035 17.9713 0.000515765 19.1528C-0.00511615 20.3566 0.0309633 20.5421 0.330511 20.8485C0.743166 21.2706 -0.137055 21.2354 9.99793 21.2354C18.4261 21.2354 19.1341 21.2279 19.3 21.1369C19.5641 20.9922 19.8407 20.6877 19.9258 20.4483C20.0424 20.12 20.0162 18.2117 19.885 17.4808C19.3233 14.3494 16.9621 11.9707 13.8228 11.3733C13.399 11.2927 12.8158 11.2735 10.3793 11.2604C8.76594 11.2516 7.20837 11.2643 6.91797 11.2884Z" fill="black"/>
</svg>
